<svg xmlns="http://www.w3.org/2000/svg" xmlns:xlink="http://www.w3.org/1999/xlink" width="500" zoomAndPan="magnify" viewBox="0 0 375 374.999991" height="500" preserveAspectRatio="xMidYMid meet" version="1.0"><defs><g/><clipPath id="c3ccd12c32"><path d="M 140 116 L 246.699219 116 L 246.699219 220 L 140 220 Z M 140 116 " clip-rule="nonzero"/></clipPath></defs><path fill="#004aad" d="M 170.453125 110.976562 C 172.441406 110.976562 174.050781 109.363281 174.050781 107.378906 L 174.050781 100.414062 C 174.050781 91.402344 181.390625 84.0625 190.429688 84.0625 C 199.46875 84.0625 206.808594 91.402344 206.808594 100.414062 L 206.808594 107.378906 C 206.808594 109.363281 208.421875 110.976562 210.40625 110.976562 C 212.394531 110.976562 214.003906 109.363281 214.003906 107.378906 L 214.003906 101.390625 C 214.003906 88.8125 204.5625 77.757812 191.984375 76.925781 C 178.3125 76.03125 166.855469 86.914062 166.855469 100.414062 L 166.855469 107.378906 C 166.855469 109.363281 168.46875 110.976562 170.453125 110.976562 Z M 170.453125 110.976562 " fill-opacity="1" fill-rule="nonzero"/><g clip-path="url(#c3ccd12c32)"><path fill="#141515" d="M 246.128906 204.527344 L 238.214844 127.527344 C 237.582031 121.398438 232.425781 116.761719 226.269531 116.761719 L 154.59375 116.761719 C 148.433594 116.761719 143.28125 121.425781 142.648438 127.527344 L 140.660156 146.699219 C 139.335938 159.566406 151.570312 169.613281 163.917969 165.839844 L 170.625 163.796875 C 178.253906 161.464844 186.773438 165.324219 189.769531 173.785156 C 190.804688 176.722656 190.660156 179.945312 189.738281 182.9375 L 186.773438 192.609375 C 182.6875 205.96875 192.675781 219.46875 206.636719 219.46875 L 232.65625 219.46875 C 240.6875 219.4375 246.964844 212.5 246.128906 204.527344 Z M 246.128906 204.527344 " fill-opacity="1" fill-rule="nonzero"/></g><path fill="#004aad" d="M 173.160156 172.03125 L 134.386719 183.859375 C 128.746094 185.585938 128.339844 193.417969 133.78125 195.71875 L 143.023438 199.605469 C 147.914062 201.679688 151.828125 205.5625 153.902344 210.488281 L 157.789062 219.726562 C 160.089844 225.167969 167.921875 224.765625 169.648438 219.121094 L 181.476562 180.347656 C 183.0625 175.253906 178.285156 170.476562 173.160156 172.03125 Z M 173.160156 172.03125 " fill-opacity="1" fill-rule="nonzero"/><g fill="#004aad" fill-opacity="1"><g transform="translate(102.040581, 291.531338)"><g><path d="M 5.0625 -8 L 5.0625 0 L 2.375 0 L 2.375 -20.421875 L 9.90625 -20.421875 C 12.132812 -20.421875 13.878906 -19.847656 15.140625 -18.703125 C 16.410156 -17.566406 17.046875 -16.054688 17.046875 -14.171875 C 17.046875 -12.191406 16.425781 -10.664062 15.1875 -9.59375 C 13.945312 -8.53125 12.175781 -8 9.875 -8 Z M 5.0625 -10.1875 L 9.90625 -10.1875 C 11.34375 -10.1875 12.441406 -10.523438 13.203125 -11.203125 C 13.972656 -11.890625 14.359375 -12.875 14.359375 -14.15625 C 14.359375 -15.363281 13.972656 -16.332031 13.203125 -17.0625 C 12.441406 -17.789062 11.390625 -18.171875 10.046875 -18.203125 L 5.0625 -18.203125 Z M 5.0625 -10.1875 "/></g></g></g><g fill="#004aad" fill-opacity="1"><g transform="translate(120.160537, 291.531338)"><g><path d="M 18.0625 0 L 15.359375 0 L 15.359375 -9.4375 L 5.0625 -9.4375 L 5.0625 0 L 2.375 0 L 2.375 -20.421875 L 5.0625 -20.421875 L 5.0625 -11.640625 L 15.359375 -11.640625 L 15.359375 -20.421875 L 18.0625 -20.421875 Z M 18.0625 0 "/></g></g></g><g fill="#004aad" fill-opacity="1"><g transform="translate(140.636648, 291.531338)"><g><path d="M 5.265625 0 L 2.5625 0 L 2.5625 -20.421875 L 5.265625 -20.421875 Z M 5.265625 0 "/></g></g></g><g fill="#004aad" fill-opacity="1"><g transform="translate(148.44843, 291.531338)"><g><path d="M 5.078125 -2.203125 L 14.75 -2.203125 L 14.75 0 L 2.375 0 L 2.375 -20.421875 L 5.078125 -20.421875 Z M 5.078125 -2.203125 "/></g></g></g><g fill="#004aad" fill-opacity="1"><g transform="translate(163.903686, 291.531338)"><g><path d="M 5.265625 0 L 2.5625 0 L 2.5625 -20.421875 L 5.265625 -20.421875 Z M 5.265625 0 "/></g></g></g><g fill="#004aad" fill-opacity="1"><g transform="translate(171.715469, 291.531338)"><g><path d="M 13.640625 -5.328125 L 5.09375 -5.328125 L 3.171875 0 L 0.390625 0 L 8.1875 -20.421875 L 10.546875 -20.421875 L 18.359375 0 L 15.59375 0 Z M 5.90625 -7.546875 L 12.84375 -7.546875 L 9.375 -17.09375 Z M 5.90625 -7.546875 "/></g></g></g><g fill="#004aad" fill-opacity="1"><g transform="translate(190.452513, 291.531338)"><g/></g></g><g fill="#004aad" fill-opacity="1"><g transform="translate(197.563058, 291.531338)"><g><path d="M 8.390625 -9.09375 C 6.078125 -9.757812 4.394531 -10.578125 3.34375 -11.546875 C 2.289062 -12.515625 1.765625 -13.707031 1.765625 -15.125 C 1.765625 -16.738281 2.40625 -18.070312 3.6875 -19.125 C 4.976562 -20.175781 6.648438 -20.703125 8.703125 -20.703125 C 10.109375 -20.703125 11.359375 -20.429688 12.453125 -19.890625 C 13.554688 -19.347656 14.410156 -18.597656 15.015625 -17.640625 C 15.617188 -16.679688 15.921875 -15.640625 15.921875 -14.515625 L 13.203125 -14.515625 C 13.203125 -15.742188 12.8125 -16.710938 12.03125 -17.421875 C 11.25 -18.128906 10.140625 -18.484375 8.703125 -18.484375 C 7.378906 -18.484375 6.34375 -18.191406 5.59375 -17.609375 C 4.851562 -17.023438 4.484375 -16.210938 4.484375 -15.171875 C 4.484375 -14.335938 4.835938 -13.632812 5.546875 -13.0625 C 6.253906 -12.488281 7.453125 -11.960938 9.140625 -11.484375 C 10.835938 -11.003906 12.164062 -10.476562 13.125 -9.90625 C 14.082031 -9.332031 14.789062 -8.660156 15.25 -7.890625 C 15.71875 -7.128906 15.953125 -6.226562 15.953125 -5.1875 C 15.953125 -3.53125 15.304688 -2.203125 14.015625 -1.203125 C 12.734375 -0.210938 11.007812 0.28125 8.84375 0.28125 C 7.445312 0.28125 6.140625 0.015625 4.921875 -0.515625 C 3.703125 -1.054688 2.765625 -1.796875 2.109375 -2.734375 C 1.453125 -3.671875 1.125 -4.734375 1.125 -5.921875 L 3.828125 -5.921875 C 3.828125 -4.679688 4.28125 -3.703125 5.1875 -2.984375 C 6.101562 -2.273438 7.320312 -1.921875 8.84375 -1.921875 C 10.269531 -1.921875 11.359375 -2.207031 12.109375 -2.78125 C 12.867188 -3.363281 13.25 -4.15625 13.25 -5.15625 C 13.25 -6.15625 12.894531 -6.925781 12.1875 -7.46875 C 11.488281 -8.019531 10.222656 -8.5625 8.390625 -9.09375 Z M 8.390625 -9.09375 "/></g></g></g><g fill="#004aad" fill-opacity="1"><g transform="translate(214.603116, 291.531338)"><g><path d="M 18.0625 0 L 15.359375 0 L 15.359375 -9.4375 L 5.0625 -9.4375 L 5.0625 0 L 2.375 0 L 2.375 -20.421875 L 5.0625 -20.421875 L 5.0625 -11.640625 L 15.359375 -11.640625 L 15.359375 -20.421875 L 18.0625 -20.421875 Z M 18.0625 0 "/></g></g></g><g fill="#004aad" fill-opacity="1"><g transform="translate(235.079227, 291.531338)"><g><path d="M 18.078125 -9.546875 C 18.078125 -7.546875 17.738281 -5.800781 17.0625 -4.3125 C 16.394531 -2.820312 15.441406 -1.679688 14.203125 -0.890625 C 12.972656 -0.109375 11.535156 0.28125 9.890625 0.28125 C 8.273438 0.28125 6.847656 -0.113281 5.609375 -0.90625 C 4.367188 -1.695312 3.40625 -2.820312 2.71875 -4.28125 C 2.03125 -5.75 1.675781 -7.445312 1.65625 -9.375 L 1.65625 -10.84375 C 1.65625 -12.800781 1.992188 -14.53125 2.671875 -16.03125 C 3.359375 -17.539062 4.328125 -18.695312 5.578125 -19.5 C 6.828125 -20.300781 8.253906 -20.703125 9.859375 -20.703125 C 11.492188 -20.703125 12.9375 -20.304688 14.1875 -19.515625 C 15.4375 -18.722656 16.394531 -17.578125 17.0625 -16.078125 C 17.738281 -14.578125 18.078125 -12.832031 18.078125 -10.84375 Z M 15.390625 -10.875 C 15.390625 -13.289062 14.90625 -15.144531 13.9375 -16.4375 C 12.96875 -17.738281 11.609375 -18.390625 9.859375 -18.390625 C 8.160156 -18.390625 6.820312 -17.738281 5.84375 -16.4375 C 4.863281 -15.144531 4.359375 -13.347656 4.328125 -11.046875 L 4.328125 -9.546875 C 4.328125 -7.203125 4.820312 -5.359375 5.8125 -4.015625 C 6.800781 -2.671875 8.160156 -2 9.890625 -2 C 11.628906 -2 12.972656 -2.632812 13.921875 -3.90625 C 14.878906 -5.175781 15.367188 -6.992188 15.390625 -9.359375 Z M 15.390625 -10.875 "/></g></g></g><g fill="#004aad" fill-opacity="1"><g transform="translate(254.826052, 291.531338)"><g><path d="M 5.0625 -8 L 5.0625 0 L 2.375 0 L 2.375 -20.421875 L 9.90625 -20.421875 C 12.132812 -20.421875 13.878906 -19.847656 15.140625 -18.703125 C 16.410156 -17.566406 17.046875 -16.054688 17.046875 -14.171875 C 17.046875 -12.191406 16.425781 -10.664062 15.1875 -9.59375 C 13.945312 -8.53125 12.175781 -8 9.875 -8 Z M 5.0625 -10.1875 L 9.90625 -10.1875 C 11.34375 -10.1875 12.441406 -10.523438 13.203125 -11.203125 C 13.972656 -11.890625 14.359375 -12.875 14.359375 -14.15625 C 14.359375 -15.363281 13.972656 -16.332031 13.203125 -17.0625 C 12.441406 -17.789062 11.390625 -18.171875 10.046875 -18.203125 L 5.0625 -18.203125 Z M 5.0625 -10.1875 "/></g></g></g></svg>