<svg xmlns="http://www.w3.org/2000/svg" xmlns:xlink="http://www.w3.org/1999/xlink" width="200" zoomAndPan="magnify" viewBox="0 0 150 149.999998" height="200" preserveAspectRatio="xMidYMid meet" version="1.0"><defs><g/><clipPath id="4bbdbd329b"><path d="M 29 45.457031 L 45 45.457031 L 45 57 L 29 57 Z M 29 45.457031 " clip-rule="nonzero"/></clipPath><clipPath id="2578b77d9a"><path d="M 21 58 L 54.449219 58 L 54.449219 90 L 21 90 Z M 21 58 " clip-rule="nonzero"/></clipPath><clipPath id="b431216d01"><path d="M 18 75 L 35 75 L 35 91.957031 L 18 91.957031 Z M 18 75 " clip-rule="nonzero"/></clipPath></defs><rect x="-15" width="180" fill="#ffffff" y="-15" height="179.999997" fill-opacity="1"/><rect x="-15" width="180" fill="#ffffff" y="-15" height="179.999997" fill-opacity="1"/><g clip-path="url(#4bbdbd329b)"><path fill="#a6a6a6" d="M 30.707031 56.425781 C 31.316406 56.425781 31.8125 55.929688 31.8125 55.320312 L 31.8125 53.175781 C 31.8125 50.402344 34.074219 48.144531 36.855469 48.144531 C 39.636719 48.144531 41.898438 50.402344 41.898438 53.175781 L 41.898438 55.320312 C 41.898438 55.929688 42.394531 56.425781 43.003906 56.425781 C 43.617188 56.425781 44.113281 55.929688 44.113281 55.320312 L 44.113281 53.476562 C 44.113281 49.605469 41.207031 46.203125 37.335938 45.945312 C 33.125 45.671875 29.597656 49.019531 29.597656 53.175781 L 29.597656 55.320312 C 29.597656 55.929688 30.09375 56.425781 30.707031 56.425781 Z M 30.707031 56.425781 " fill-opacity="1" fill-rule="nonzero"/></g><g clip-path="url(#2578b77d9a)"><path fill="#141515" d="M 54 85.222656 L 51.5625 61.523438 C 51.367188 59.632812 49.78125 58.207031 47.886719 58.207031 L 25.824219 58.207031 C 23.929688 58.207031 22.34375 59.644531 22.148438 61.523438 L 21.535156 67.421875 C 21.128906 71.382812 24.894531 74.476562 28.695312 73.316406 L 30.761719 72.6875 C 33.109375 71.96875 35.730469 73.15625 36.652344 75.761719 C 36.972656 76.664062 36.925781 77.65625 36.644531 78.578125 L 35.730469 81.554688 C 34.472656 85.664062 37.546875 89.820312 41.84375 89.820312 L 49.855469 89.820312 C 52.324219 89.8125 54.257812 87.675781 54 85.222656 Z M 54 85.222656 " fill-opacity="1" fill-rule="nonzero"/></g><g clip-path="url(#b431216d01)"><path fill="#a6a6a6" d="M 31.539062 75.21875 L 19.605469 78.859375 C 17.867188 79.394531 17.746094 81.800781 19.417969 82.511719 L 22.261719 83.707031 C 23.769531 84.34375 24.972656 85.542969 25.613281 87.058594 L 26.808594 89.902344 C 27.515625 91.574219 29.925781 91.453125 30.457031 89.714844 L 34.101562 77.78125 C 34.585938 76.210938 33.117188 74.742188 31.539062 75.21875 Z M 31.539062 75.21875 " fill-opacity="1" fill-rule="nonzero"/></g><g fill="#d9d9d9" fill-opacity="1"><g transform="translate(63.423073, 75.216427)"><g><path d="M 2.40625 -2.875 L 2.40625 0 L 0.734375 0 L 0.734375 -8.171875 L 3.921875 -8.171875 C 4.523438 -8.171875 5.0625 -8.054688 5.53125 -7.828125 C 6 -7.597656 6.359375 -7.273438 6.609375 -6.859375 C 6.859375 -6.453125 6.984375 -5.988281 6.984375 -5.46875 C 6.984375 -4.664062 6.707031 -4.03125 6.15625 -3.5625 C 5.613281 -3.101562 4.859375 -2.875 3.890625 -2.875 Z M 2.40625 -4.234375 L 3.921875 -4.234375 C 4.359375 -4.234375 4.691406 -4.335938 4.921875 -4.546875 C 5.160156 -4.765625 5.28125 -5.066406 5.28125 -5.453125 C 5.28125 -5.847656 5.160156 -6.171875 4.921875 -6.421875 C 4.691406 -6.671875 4.367188 -6.796875 3.953125 -6.796875 L 2.40625 -6.796875 Z M 2.40625 -4.234375 "/></g></g></g><g fill="#d9d9d9" fill-opacity="1"><g transform="translate(70.833745, 75.216427)"><g><path d="M 7.375 0 L 5.6875 0 L 5.6875 -3.5 L 2.40625 -3.5 L 2.40625 0 L 0.734375 0 L 0.734375 -8.171875 L 2.40625 -8.171875 L 2.40625 -4.859375 L 5.6875 -4.859375 L 5.6875 -8.171875 L 7.375 -8.171875 Z M 7.375 0 "/></g></g></g><g fill="#d9d9d9" fill-opacity="1"><g transform="translate(78.951263, 75.216427)"><g><path d="M 2.515625 0 L 0.828125 0 L 0.828125 -8.171875 L 2.515625 -8.171875 Z M 2.515625 0 "/></g></g></g><g fill="#d9d9d9" fill-opacity="1"><g transform="translate(82.300372, 75.216427)"><g><path d="M 2.40625 -1.34375 L 5.984375 -1.34375 L 5.984375 0 L 0.734375 0 L 0.734375 -8.171875 L 2.40625 -8.171875 Z M 2.40625 -1.34375 "/></g></g></g><g fill="#d9d9d9" fill-opacity="1"><g transform="translate(88.521746, 75.216427)"><g><path d="M 2.515625 0 L 0.828125 0 L 0.828125 -8.171875 L 2.515625 -8.171875 Z M 2.515625 0 "/></g></g></g><g fill="#d9d9d9" fill-opacity="1"><g transform="translate(91.870855, 75.216427)"><g><path d="M 5.34375 -1.6875 L 2.390625 -1.6875 L 1.828125 0 L 0.046875 0 L 3.078125 -8.171875 L 4.640625 -8.171875 L 7.6875 0 L 5.90625 0 Z M 2.84375 -3.046875 L 4.890625 -3.046875 L 3.859375 -6.09375 Z M 2.84375 -3.046875 "/></g></g></g><g fill="#d9d9d9" fill-opacity="1"><g transform="translate(99.601288, 75.216427)"><g/></g></g><g fill="#d9d9d9" fill-opacity="1"><g transform="translate(102.462333, 75.216427)"><g><path d="M 4.96875 -2.140625 C 4.96875 -2.460938 4.851562 -2.707031 4.625 -2.875 C 4.40625 -3.039062 4.003906 -3.21875 3.421875 -3.40625 C 2.835938 -3.601562 2.375 -3.789062 2.03125 -3.96875 C 1.101562 -4.46875 0.640625 -5.144531 0.640625 -6 C 0.640625 -6.4375 0.765625 -6.828125 1.015625 -7.171875 C 1.265625 -7.515625 1.617188 -7.785156 2.078125 -7.984375 C 2.546875 -8.179688 3.070312 -8.28125 3.65625 -8.28125 C 4.238281 -8.28125 4.753906 -8.171875 5.203125 -7.953125 C 5.660156 -7.742188 6.015625 -7.445312 6.265625 -7.0625 C 6.523438 -6.675781 6.65625 -6.238281 6.65625 -5.75 L 4.96875 -5.75 C 4.96875 -6.125 4.847656 -6.414062 4.609375 -6.625 C 4.378906 -6.832031 4.050781 -6.9375 3.625 -6.9375 C 3.207031 -6.9375 2.882812 -6.847656 2.65625 -6.671875 C 2.4375 -6.503906 2.328125 -6.273438 2.328125 -5.984375 C 2.328125 -5.722656 2.457031 -5.5 2.71875 -5.3125 C 2.988281 -5.132812 3.382812 -4.96875 3.90625 -4.8125 C 4.863281 -4.53125 5.5625 -4.175781 6 -3.75 C 6.4375 -3.320312 6.65625 -2.789062 6.65625 -2.15625 C 6.65625 -1.445312 6.382812 -0.890625 5.84375 -0.484375 C 5.3125 -0.0859375 4.59375 0.109375 3.6875 0.109375 C 3.0625 0.109375 2.488281 -0.00390625 1.96875 -0.234375 C 1.457031 -0.460938 1.066406 -0.773438 0.796875 -1.171875 C 0.523438 -1.578125 0.390625 -2.039062 0.390625 -2.5625 L 2.078125 -2.5625 C 2.078125 -1.664062 2.613281 -1.21875 3.6875 -1.21875 C 4.09375 -1.21875 4.40625 -1.296875 4.625 -1.453125 C 4.851562 -1.617188 4.96875 -1.847656 4.96875 -2.140625 Z M 4.96875 -2.140625 "/></g></g></g><g fill="#d9d9d9" fill-opacity="1"><g transform="translate(109.525192, 75.216427)"><g><path d="M 7.375 0 L 5.6875 0 L 5.6875 -3.5 L 2.40625 -3.5 L 2.40625 0 L 0.734375 0 L 0.734375 -8.171875 L 2.40625 -8.171875 L 2.40625 -4.859375 L 5.6875 -4.859375 L 5.6875 -8.171875 L 7.375 -8.171875 Z M 7.375 0 "/></g></g></g><g fill="#d9d9d9" fill-opacity="1"><g transform="translate(117.64271, 75.216427)"><g><path d="M 7.4375 -3.890625 C 7.4375 -3.085938 7.289062 -2.382812 7 -1.78125 C 6.71875 -1.175781 6.3125 -0.707031 5.78125 -0.375 C 5.257812 -0.0507812 4.65625 0.109375 3.96875 0.109375 C 3.289062 0.109375 2.6875 -0.0507812 2.15625 -0.375 C 1.625 -0.695312 1.210938 -1.160156 0.921875 -1.765625 C 0.628906 -2.367188 0.484375 -3.066406 0.484375 -3.859375 L 0.484375 -4.25 C 0.484375 -5.0625 0.625 -5.769531 0.90625 -6.375 C 1.195312 -6.988281 1.609375 -7.457031 2.140625 -7.78125 C 2.671875 -8.113281 3.273438 -8.28125 3.953125 -8.28125 C 4.640625 -8.28125 5.242188 -8.113281 5.765625 -7.78125 C 6.296875 -7.457031 6.707031 -6.988281 7 -6.375 C 7.289062 -5.769531 7.4375 -5.066406 7.4375 -4.265625 Z M 5.734375 -4.265625 C 5.734375 -5.117188 5.578125 -5.769531 5.265625 -6.21875 C 4.960938 -6.664062 4.523438 -6.890625 3.953125 -6.890625 C 3.390625 -6.890625 2.953125 -6.664062 2.640625 -6.21875 C 2.335938 -5.78125 2.1875 -5.140625 2.1875 -4.296875 L 2.1875 -3.890625 C 2.1875 -3.054688 2.335938 -2.410156 2.640625 -1.953125 C 2.953125 -1.492188 3.394531 -1.265625 3.96875 -1.265625 C 4.53125 -1.265625 4.960938 -1.484375 5.265625 -1.921875 C 5.566406 -2.367188 5.722656 -3.019531 5.734375 -3.875 Z M 5.734375 -4.265625 "/></g></g></g><g fill="#d9d9d9" fill-opacity="1"><g transform="translate(125.575099, 75.216427)"><g><path d="M 2.40625 -2.875 L 2.40625 0 L 0.734375 0 L 0.734375 -8.171875 L 3.921875 -8.171875 C 4.523438 -8.171875 5.0625 -8.054688 5.53125 -7.828125 C 6 -7.597656 6.359375 -7.273438 6.609375 -6.859375 C 6.859375 -6.453125 6.984375 -5.988281 6.984375 -5.46875 C 6.984375 -4.664062 6.707031 -4.03125 6.15625 -3.5625 C 5.613281 -3.101562 4.859375 -2.875 3.890625 -2.875 Z M 2.40625 -4.234375 L 3.921875 -4.234375 C 4.359375 -4.234375 4.691406 -4.335938 4.921875 -4.546875 C 5.160156 -4.765625 5.28125 -5.066406 5.28125 -5.453125 C 5.28125 -5.847656 5.160156 -6.171875 4.921875 -6.421875 C 4.691406 -6.671875 4.367188 -6.796875 3.953125 -6.796875 L 2.40625 -6.796875 Z M 2.40625 -4.234375 "/></g></g></g></svg>